<svg width="48" height="48" viewBox="0 0 48 48" fill="none" xmlns="http://www.w3.org/2000/svg">
<path d="M32.4391 35.904C32.9101 36.153 33.5191 36.126 33.9391 35.754L33.9541 35.769C35.5602 34.3446 37.1833 32.9395 38.8231 31.554C39.3421 31.125 39.2521 30.438 38.8411 29.865L38.4661 29.355C37.4311 27.96 36.4471 26.637 36.4471 23.982V14.082L36.4501 13.077C36.4741 9.282 36.4921 5.814 33.6511 3.162C31.2121 0.822 27.1801 0 24.0901 0C18.0511 0 11.3101 2.25 9.88813 9.72C9.74713 10.512 10.3171 10.932 10.8361 11.049L16.9981 11.709C17.5681 11.682 17.9881 11.121 18.0961 10.548C18.6241 7.977 20.7841 6.735 23.2051 6.735C24.5101 6.735 25.9921 7.215 26.7691 8.385C27.5611 9.555 27.5491 11.115 27.5401 12.513V13.809C26.9431 13.875 26.3191 13.941 25.6771 14.004C22.3381 14.346 18.4861 14.742 15.5971 16.014C11.6191 17.73 8.82013 21.24 8.82013 26.394C8.82013 32.994 12.9811 36.288 18.3241 36.288C22.8421 36.288 25.3081 35.226 28.7911 31.668L29.2921 32.406C30.1141 33.621 30.6601 34.431 32.4331 35.904H32.4391ZM18.0901 25.293C18.0901 19.881 22.9411 18.9 27.5311 18.9V20.61C27.5341 22.938 27.5371 24.912 26.3431 27.009C25.3351 28.794 23.7331 29.892 21.9481 29.892C19.5121 29.892 18.0901 28.035 18.0901 25.293ZM1.30513 36.522C9.19213 41.331 21.3991 48.774 40.8541 39.513C41.6941 39.165 42.2791 39.747 41.4511 40.806C40.6141 41.88 33.9361 48 22.7101 48C11.4961 48 2.90413 40.338 0.282135 37.158C-0.437865 36.333 0.390135 35.958 0.879135 36.261L1.30513 36.522Z" fill="white"/>
<path d="M41.484 35.829C43.185 35.619 45.888 35.748 46.419 36.441C46.824 36.969 46.407 39.339 45.72 41.04C45.03 42.729 44.004 43.923 43.434 44.385C42.861 44.847 42.435 44.667 42.744 43.974C43.059 43.284 44.796 38.985 44.109 38.085C43.47 37.251 40.578 37.554 39.234 37.695L38.964 37.722C38.679 37.746 38.448 37.773 38.265 37.794C37.686 37.857 37.53 37.875 37.443 37.698C37.221 37.071 39.78 36.03 41.484 35.829Z" fill="white"/>
</svg>
