<svg width="48" height="48" viewBox="0 0 48 48" fill="none" xmlns="http://www.w3.org/2000/svg">
<g clip-path="url(#clip0_5_550)">
<path fill-rule="evenodd" clip-rule="evenodd" d="M24.0001 0C10.7507 0 0.00012207 10.7505 0.00012207 24C0.00012207 37.2495 10.7507 48 24.0001 48C37.2235 48 48.0001 37.2495 48.0001 24C48.0001 10.7505 37.2235 0 24.0001 0ZM39.8526 11.0629C42.7159 14.551 44.434 19.0021 44.4861 23.8177C43.8093 23.6877 37.0413 22.308 30.2214 23.167C30.0652 22.8286 29.935 22.4641 29.7789 22.0998C29.3623 21.1107 28.8939 20.0955 28.4253 19.1324C35.974 16.0608 39.4101 11.6356 39.8526 11.0629ZM24.0001 3.54013C29.2062 3.54013 33.9697 5.49242 37.588 8.69415C37.2235 9.21476 34.1259 13.3536 26.8374 16.0868C23.4795 9.91756 19.7572 4.86768 19.1845 4.08676C20.7202 3.72234 22.3342 3.54013 24.0001 3.54013ZM15.28 5.46637C15.8266 6.19522 19.4709 11.2712 22.8808 17.3102C13.3016 19.8612 4.84178 19.8092 3.93071 19.8092C5.25825 13.4577 9.55326 8.17353 15.28 5.46637ZM3.48819 24.0261C3.48819 23.8178 3.48819 23.6096 3.48819 23.4014C4.37322 23.4273 14.3168 23.5575 24.5467 20.486C25.1455 21.6312 25.6921 22.8026 26.2128 23.9739C25.9524 24.052 25.666 24.1302 25.4058 24.2082C14.8374 27.6181 9.21488 36.937 8.74632 37.7179C5.49252 34.0998 3.48819 29.2842 3.48819 24.0261ZM24.0001 44.5119C19.2625 44.5119 14.8895 42.898 11.4275 40.1908C11.7919 39.4361 15.9567 31.4187 27.5142 27.384C27.5662 27.3579 27.5923 27.3579 27.6444 27.332C30.5337 34.8026 31.7052 41.0759 32.0175 42.872C29.5446 43.9392 26.8374 44.5119 24.0001 44.5119ZM35.4274 40.9978C35.2192 39.7483 34.1259 33.7614 31.4448 26.3948C37.8744 25.3796 43.4968 27.0456 44.1997 27.2799C43.3147 32.9805 40.0348 37.9002 35.4274 40.9978Z" fill="white"/>
</g>
<defs>
<clipPath id="clip0_5_550">
<rect width="48" height="48" fill="white"/>
</clipPath>
</defs>
</svg>
