<svg width="48" height="48" viewBox="0 0 48 48" fill="none" xmlns="http://www.w3.org/2000/svg">
<g clip-path="url(#clip0_5_548)">
<path d="M40.6341 8.31115C37.5748 6.90738 34.2941 5.87315 30.8639 5.28081C30.8015 5.26937 30.739 5.29794 30.7069 5.35508C30.2849 6.10551 29.8176 7.08451 29.4903 7.854C25.8009 7.30166 22.1305 7.30166 18.5168 7.854C18.1894 7.06741 17.7051 6.10551 17.2813 5.35508C17.2491 5.29985 17.1867 5.27128 17.1242 5.28081C13.6959 5.87126 10.4152 6.90549 7.35399 8.31115C7.32749 8.32257 7.30478 8.34164 7.2897 8.36638C1.06691 17.6631 -0.637778 26.7313 0.198482 35.6871C0.202266 35.7309 0.226862 35.7728 0.260918 35.7995C4.36654 38.8145 8.34354 40.645 12.2467 41.8582C12.3091 41.8773 12.3753 41.8544 12.4151 41.803C13.3384 40.5421 14.1614 39.2127 14.8671 37.8146C14.9087 37.7327 14.869 37.6356 14.7839 37.6032C13.4784 37.108 12.2353 36.5042 11.0396 35.8185C10.945 35.7633 10.9374 35.628 11.0244 35.5632C11.2761 35.3747 11.5278 35.1785 11.768 34.9804C11.8115 34.9443 11.8721 34.9366 11.9232 34.9595C19.7787 38.546 28.2832 38.546 36.046 34.9595C36.0971 34.9347 36.1577 34.9424 36.2031 34.9785C36.4434 35.1766 36.695 35.3747 36.9486 35.5632C37.0356 35.628 37.0299 35.7633 36.9353 35.8185C35.7396 36.5175 34.4965 37.108 33.1891 37.6013C33.104 37.6337 33.0662 37.7327 33.1078 37.8146C33.8286 39.2107 34.6517 40.5402 35.5579 41.8011C35.5958 41.8544 35.6639 41.8773 35.7263 41.8582C39.6484 40.645 43.6254 38.8145 47.731 35.7995C47.7669 35.7728 47.7897 35.7328 47.7934 35.689C48.7943 25.3351 46.1171 16.3413 40.6965 8.36827C40.6833 8.34164 40.6607 8.32257 40.6341 8.31115ZM16.0402 30.234C13.6751 30.234 11.7264 28.0627 11.7264 25.3961C11.7264 22.7295 13.6373 20.5582 16.0402 20.5582C18.4619 20.5582 20.3917 22.7486 20.3539 25.3961C20.3539 28.0627 18.4429 30.234 16.0402 30.234ZM31.9896 30.234C29.6246 30.234 27.6759 28.0627 27.6759 25.3961C27.6759 22.7295 29.5868 20.5582 31.9896 20.5582C34.4114 20.5582 36.3412 22.7486 36.3034 25.3961C36.3034 28.0627 34.4114 30.234 31.9896 30.234Z" fill="white"/>
</g>
<defs>
<clipPath id="clip0_5_548">
<rect width="48" height="48" fill="white"/>
</clipPath>
</defs>
</svg>
