<svg width="48" height="48" viewBox="0 0 48 48" fill="none" xmlns="http://www.w3.org/2000/svg">
<g clip-path="url(#clip0_5_562)">
<path d="M48.0001 24C48.0001 10.7452 37.255 0 24.0001 0C10.7453 0 0.00012207 10.7452 0.00012207 24C0.00012207 35.9789 8.77653 45.908 20.2501 47.7084V30.9375H14.1564V24H20.2501V18.7125C20.2501 12.6975 23.8332 9.375 29.3153 9.375C31.9403 9.375 34.6876 9.84375 34.6876 9.84375V15.75H31.6614C28.6801 15.75 27.7501 17.6002 27.7501 19.5V24H34.4064L33.3423 30.9375H27.7501V47.7084C39.2237 45.908 48.0001 35.9789 48.0001 24Z" fill="white"/>
</g>
<defs>
<clipPath id="clip0_5_562">
<rect width="48" height="48" fill="white"/>
</clipPath>
</defs>
</svg>
