<svg width="48" height="48" viewBox="0 0 48 48" fill="none" xmlns="http://www.w3.org/2000/svg">
<g clip-path="url(#clip0_5_551)">
<path fill-rule="evenodd" clip-rule="evenodd" d="M16.3202 0H31.68C36.4496 0 40.3201 3.8705 40.3201 8.64006C40.3201 11.9825 38.4193 14.8832 35.6405 16.3199C38.4194 17.7567 40.3201 20.6576 40.3201 23.9999C40.3201 28.7695 36.4496 32.64 31.68 32.64C28.9669 32.64 26.5447 31.3876 24.9604 29.4298V39.3599C24.9604 44.1295 21.0898 48 16.3202 48C11.5507 48 7.68011 44.1295 7.68011 39.3599C7.68011 36.0175 9.58089 33.1167 12.3598 31.6799C9.58089 30.2432 7.68011 27.3423 7.68011 23.9999C7.68011 20.6576 9.58087 17.7567 12.3598 16.3199C9.58088 14.8832 7.68011 11.9825 7.68011 8.64006C7.68011 3.8705 11.5507 0 16.3202 0ZM9.60011 8.64006C9.60011 4.9309 12.611 1.92 16.3202 1.92H23.0399V15.3599H16.3202L16.2994 15.3599C12.5997 15.3487 9.60011 12.3422 9.60011 8.64006ZM23.0404 23.9086C23.04 23.939 23.0399 23.9694 23.0399 23.9999C23.0399 24.0304 23.04 24.0609 23.0404 24.0913V30.7198H16.3202C12.611 30.72 9.60011 27.7091 9.60011 23.9999C9.60011 20.2977 12.5999 17.2911 16.2996 17.2799L16.3202 17.2799H23.0399L23.0404 23.9086ZM24.9604 24.0804V23.9195C25.0034 20.2565 27.9827 17.2947 31.6525 17.2799H31.68C31.6869 17.2799 31.6938 17.2799 31.7007 17.2799C35.4004 17.2911 38.4001 20.2977 38.4001 23.9999C38.4001 27.7091 35.3892 30.72 31.68 30.72C27.9977 30.72 25.0035 27.7526 24.9604 24.0804ZM26.2506 17.2799C25.7766 17.6635 25.3439 18.0961 24.9604 18.5701V17.2799H26.2506ZM31.7008 15.3599C31.6939 15.3599 31.6869 15.3599 31.68 15.3599C31.6695 15.3599 31.659 15.3599 31.6485 15.3599H24.9604V1.92H31.68C35.3892 1.92 38.4001 4.9309 38.4001 8.64006C38.4001 12.3422 35.4005 15.3487 31.7008 15.3599ZM16.3202 32.6399C12.611 32.6399 9.60011 35.6508 9.60011 39.3599C9.60011 43.0691 12.611 46.08 16.3202 46.08C20.0294 46.08 23.0404 43.0691 23.0404 39.3599V32.6399H16.3202Z" fill="white" stroke="white"/>
</g>
<defs>
<clipPath id="clip0_5_551">
<rect width="48" height="48" fill="white"/>
</clipPath>
</defs>
</svg>
