<svg width="24" height="25" viewBox="0 0 24 25" fill="none" xmlns="http://www.w3.org/2000/svg">
<path d="M22.5029 10.0074C22.8084 9.16651 22.8854 8.32564 22.8084 7.486C22.7326 6.64514 22.4271 5.80549 22.0445 5.04163C21.3577 3.89522 20.364 2.97858 19.2188 2.44448C17.9967 1.90916 16.6975 1.75639 15.3995 2.06194C14.7884 1.45084 14.1003 0.916748 13.3365 0.534203C12.5726 0.154103 11.656 0.000107729 10.8163 0.000107729C9.50477 -0.00754898 8.22334 0.39311 7.14975 1.14652C6.08034 1.90916 5.31647 2.9798 4.93393 4.20199C4.01729 4.43053 3.25342 4.81308 2.48955 5.2714C1.80269 5.80549 1.26737 6.49359 0.809048 7.18045C0.12218 8.32686 -0.107591 9.62483 0.0451819 10.924C0.198683 12.2194 0.729997 13.441 1.57292 14.4366C1.28401 15.2437 1.1796 16.1052 1.26737 16.9579C1.34437 17.7988 1.64991 18.6385 2.03124 19.4023C2.71933 20.5487 3.71174 21.4654 4.85815 21.9995C6.08034 22.5348 7.3783 22.6876 8.67749 22.382C9.28858 22.9931 9.97545 23.5272 10.7393 23.9097C11.5032 24.2911 12.4198 24.4438 13.2607 24.4438C14.5722 24.4515 15.8537 24.0508 16.9272 23.2974C17.9967 22.5336 18.7605 21.4641 19.1418 20.242C20.0049 20.0779 20.8166 19.7114 21.5104 19.1725C22.1973 18.6385 22.8084 18.0274 23.191 17.2635C23.8778 16.1171 24.1076 14.8191 23.9548 13.5199C23.802 12.222 23.3437 10.9998 22.5029 10.0074ZM13.3365 22.8403C12.1143 22.8403 11.1976 22.4578 10.358 21.7709C10.358 21.7709 10.4338 21.6939 10.5108 21.6939L15.3995 18.867C15.536 18.8069 15.645 18.6979 15.7051 18.5615C15.7808 18.4087 15.7808 18.3329 15.7808 18.1801V11.3053L17.8439 12.5275V18.1801C17.8649 18.7849 17.7638 19.3877 17.5467 19.9526C17.3296 20.5174 17.0008 21.0327 16.5801 21.4677C16.1594 21.9027 15.6553 22.2484 15.098 22.4842C14.5407 22.7201 13.9416 22.8412 13.3365 22.8403ZM3.48319 18.6385C2.94787 17.7218 2.71933 16.6524 2.94787 15.583C2.94787 15.583 3.02487 15.66 3.10065 15.66L7.98939 18.4857C8.10681 18.5477 8.23967 18.5745 8.37194 18.5627C8.52471 18.5627 8.67749 18.5627 8.75326 18.4857L14.7114 15.0477V17.4163L9.7469 20.319C8.70692 20.9213 7.47034 21.0862 6.30889 20.7773C5.0867 20.4717 4.09429 19.7079 3.48319 18.6385ZM2.18401 8.0201C2.72436 7.10796 3.56 6.40771 4.55261 6.03527V11.8407C4.55261 11.9922 4.55261 12.1462 4.62838 12.222C4.68846 12.3584 4.79747 12.4674 4.93393 12.5275L10.8921 15.9655L8.83026 17.1877L3.94151 14.3608C3.42077 14.0668 2.96356 13.6723 2.59642 13.2003C2.22927 12.7282 1.95948 12.188 1.80269 11.6109C1.49714 10.4645 1.57292 9.08951 2.18401 8.0201ZM19.0661 11.9164L13.1079 8.47842L15.1697 7.25623L20.0585 10.0831C20.8224 10.5415 21.4334 11.1526 21.816 11.9164C22.1973 12.6803 22.4271 13.5212 22.3501 14.4378C22.2757 15.298 21.9577 16.1192 21.4334 16.8052C20.8994 17.4933 20.2113 18.0274 19.3716 18.3329V12.5275C19.3716 12.3747 19.3716 12.222 19.2946 12.145C19.2946 12.145 19.2188 11.9934 19.0661 11.9164ZM21.1279 8.86096C21.1279 8.86096 21.0521 8.78396 20.9751 8.78396L16.0864 5.95827C15.9336 5.88127 15.8578 5.88127 15.7051 5.88127C15.5523 5.88127 15.3995 5.88127 15.3225 5.95827L9.36435 9.39628V7.02768L14.3301 4.12499C15.094 3.66667 15.9336 3.51389 16.8502 3.51389C17.6911 3.51389 18.5308 3.81944 19.2946 4.35476C19.9827 4.88885 20.5938 5.57695 20.8994 6.34081C21.2049 7.10468 21.2807 8.02132 21.1279 8.86096ZM8.29494 13.1386L6.23311 11.9164V6.18682C6.23311 5.34717 6.46166 4.43053 6.91998 3.74244C7.3783 2.9798 8.06639 2.44448 8.83026 2.06316C9.60873 1.67238 10.4912 1.53886 11.3504 1.68184C12.1913 1.75883 13.0309 2.14016 13.719 2.67547C13.719 2.67547 13.642 2.75125 13.5662 2.75125L8.67749 5.57817C8.54103 5.63824 8.43202 5.74725 8.37194 5.88371C8.29494 6.03649 8.29494 6.11226 8.29494 6.26504V13.1398V13.1386ZM9.36435 10.6942L12.0385 9.16651L14.7114 10.6942V13.7497L12.0385 15.2774L9.36435 13.7497V10.6942Z" fill="white"/>
</svg>
