<svg width="48" height="48" viewBox="0 0 48 48" fill="none" xmlns="http://www.w3.org/2000/svg">
<g clip-path="url(#clip0_5_549)">
<path fill-rule="evenodd" clip-rule="evenodd" d="M48.0001 24C48.0001 37.2548 37.255 48 24.0001 48C10.7453 48 0.00012207 37.2548 0.00012207 24C0.00012207 10.7452 10.7453 0 24.0001 0C37.255 0 48.0001 10.7452 48.0001 24ZM36.4914 20.4912C38.4282 20.4912 40.0001 22.0631 40.0001 24C40.0001 25.4315 39.13 26.6666 37.9791 27.228C38.0352 27.5649 38.0633 27.9017 38.0633 28.2666C38.0633 33.6561 31.8036 38.007 24.0563 38.007C16.3089 38.007 10.0493 33.6561 10.0493 28.2666C10.0493 27.9017 10.0773 27.5368 10.1335 27.2C8.89838 26.6385 8.05627 25.4315 8.05627 24C8.05627 22.0631 9.6282 20.4912 11.565 20.4912C12.4914 20.4912 13.3615 20.8842 13.9791 21.4736C16.3931 19.7052 19.7335 18.6105 23.4668 18.4982L25.2352 10.1333C25.2914 9.96486 25.3756 9.82451 25.5159 9.7403C25.6563 9.65609 25.8247 9.62802 25.9931 9.65609L31.8036 10.8912C32.1966 10.0491 33.0387 9.48767 34.0212 9.48767C35.3966 9.48767 36.5194 10.6105 36.5194 11.9859C36.5194 13.3614 35.3966 14.4842 34.0212 14.4842C32.6738 14.4842 31.5791 13.4175 31.5229 12.0982L26.33 11.0035L24.73 18.4982C28.3791 18.6385 31.6914 19.7614 34.0773 21.4736C34.6949 20.8561 35.537 20.4912 36.4914 20.4912ZM18.4984 24C17.1229 24 16.0001 25.1228 16.0001 26.4982C16.0001 27.8736 17.1229 28.9964 18.4984 28.9964C19.8738 28.9964 20.9966 27.8736 20.9966 26.4982C20.9966 25.1228 19.8738 24 18.4984 24ZM24.0282 34.9193C24.9826 34.9193 28.2387 34.807 29.951 33.0947C30.2036 32.8421 30.2036 32.4491 30.0072 32.1684C29.7545 31.9157 29.3335 31.9157 29.0808 32.1684C27.9861 33.235 25.7124 33.628 24.0563 33.628C22.4001 33.628 20.0984 33.235 19.0317 32.1684C18.7791 31.9157 18.358 31.9157 18.1054 32.1684C17.8528 32.421 17.8528 32.8421 18.1054 33.0947C19.7896 34.7789 23.0738 34.9193 24.0282 34.9193ZM27.0036 26.4982C27.0036 27.8736 28.1264 28.9964 29.5019 28.9964C30.8773 28.9964 32.0001 27.8736 32.0001 26.4982C32.0001 25.1228 30.8773 24 29.5019 24C28.1264 24 27.0036 25.1228 27.0036 26.4982Z" fill="white"/>
</g>
<defs>
<clipPath id="clip0_5_549">
<rect width="48" height="48" fill="white"/>
</clipPath>
</defs>
</svg>
