<svg width="48" height="48" viewBox="0 0 48 48" fill="none" xmlns="http://www.w3.org/2000/svg">
<g clip-path="url(#clip0_5_545)">
<path d="M18.2383 0.700643L18.777 2.88262C16.6539 3.40733 14.622 4.24863 12.7493 5.37825L11.597 3.44857C13.6582 2.20031 15.8977 1.27368 18.2383 0.700643ZM29.7619 0.700643L29.2232 2.88262C31.3463 3.40733 33.3783 4.24863 35.2509 5.37825L36.4169 3.44857C34.3503 2.2014 32.1064 1.27489 29.7619 0.700643ZM3.44866 11.5901C2.20156 13.6543 1.27504 15.8959 0.700737 18.2383L2.88271 18.7769C3.40742 16.6539 4.24873 14.6219 5.37834 12.7492L3.44866 11.5901ZM2.24857 24C2.24841 22.909 2.33047 21.8194 2.49405 20.7407L0.27116 20.3998C-0.090224 22.7841 -0.090224 25.2092 0.27116 27.5935L2.49405 27.2593C2.33072 26.1806 2.24867 25.0911 2.24857 24ZM36.4033 44.5447L35.2509 42.6218C33.3813 43.7525 31.3513 44.5939 29.23 45.1174L29.7687 47.2994C32.1065 46.7209 34.3433 45.7921 36.4033 44.5447ZM45.7517 24C45.7516 25.0911 45.6695 26.1806 45.5062 27.2593L47.7291 27.5935C48.0905 25.2092 48.0905 22.7841 47.7291 20.3998L45.5062 20.7407C45.6698 21.8194 45.7518 22.909 45.7517 24ZM47.2995 29.755L45.1175 29.2163C44.5941 31.3419 43.7527 33.3764 42.6219 35.2508L44.5516 36.41C45.7999 34.3439 46.7265 32.0999 47.2995 29.755ZM27.2594 45.5061C25.0989 45.8334 22.9014 45.8334 20.7408 45.5061L20.4067 47.729C22.7887 48.0904 25.2116 48.0904 27.5936 47.729L27.2594 45.5061ZM41.5105 36.9009C40.2144 38.6584 38.6604 40.2101 36.901 41.5035L38.2375 43.3173C40.1754 41.8907 41.8898 40.1832 43.3242 38.251L41.5105 36.9009ZM36.901 6.48969C38.6606 7.78559 40.2146 9.33955 41.5105 11.0991L43.3242 9.74901C41.8949 7.81512 40.185 6.10527 38.2511 4.67593L36.901 6.48969ZM6.48978 11.0991C7.78568 9.33955 9.33964 7.78559 11.0992 6.48969L9.74911 4.67593C7.81521 6.10527 6.10536 7.81512 4.67602 9.74901L6.48978 11.0991ZM44.5516 11.5901L42.6219 12.7492C43.7526 14.6189 44.594 16.6488 45.1175 18.7701L47.2995 18.2314C46.7252 15.8913 45.7986 13.6519 44.5516 11.5901ZM20.7408 2.49395C22.9014 2.16662 25.0989 2.16662 27.2594 2.49395L27.5936 0.271067C25.2116 -0.0903557 22.7887 -0.0903557 20.4067 0.271067L20.7408 2.49395ZM7.64214 43.9174L2.99863 44.9947L4.08279 40.3512L1.894 39.8398L0.809835 44.4833C0.742 44.7712 0.73159 45.0696 0.7792 45.3616C0.82681 45.6535 0.931506 45.9332 1.0873 46.1846C1.24309 46.436 1.44693 46.6542 1.68714 46.8268C1.92735 46.9994 2.19923 47.1229 2.48723 47.1903C2.82403 47.2653 3.17322 47.2653 3.51003 47.1903L8.15354 46.1198L7.64214 43.9174ZM2.35767 37.8351L4.55328 38.3397L5.30334 35.1213C4.20801 33.2839 3.3922 31.2938 2.88271 29.2163L0.700737 29.755C1.19153 31.7436 1.93394 33.6615 2.90998 35.4622L2.35767 37.8351ZM12.8584 42.7036L9.64001 43.4537L10.1514 45.6493L12.5175 45.097C14.3169 46.076 16.2351 46.8185 18.2247 47.3062L18.7634 45.1243C16.6924 44.6081 14.7093 43.7878 12.8789 42.69L12.8584 42.7036ZM24.0001 4.49864C13.2266 4.50546 4.50555 13.2402 4.50555 24.0068C4.51149 27.674 5.54878 31.2656 7.49895 34.3712L5.62381 42.3763L13.6221 40.5012C22.7387 46.2357 34.7804 43.5014 40.5149 34.3917C46.2494 25.2819 43.522 13.2402 34.4122 7.49885C31.2936 5.53767 27.6842 4.49764 24.0001 4.49864Z" fill="white"/>
</g>
<defs>
<clipPath id="clip0_5_545">
<rect width="48" height="48" fill="white"/>
</clipPath>
</defs>
</svg>
