<svg width="48" height="48" viewBox="0 0 48 48" fill="none" xmlns="http://www.w3.org/2000/svg">
<g clip-path="url(#clip0_5_544)">
<path d="M23.9267 0C10.7127 0 0.00012207 10.7123 0.00012207 23.9263C0.00012207 37.1409 10.7127 47.8523 23.9267 47.8523C37.1421 47.8523 47.8535 37.1409 47.8535 23.9263C47.8535 10.7131 37.1421 0.00114285 23.9264 0.00114285L23.9267 0ZM34.8993 34.5086C34.4707 35.2114 33.5507 35.4343 32.8478 35.0029C27.2301 31.5714 20.1581 30.7943 11.8295 32.6971C11.027 32.88 10.227 32.3771 10.0441 31.5743C9.86041 30.7714 10.3613 29.9714 11.1658 29.7886C20.2801 27.7054 28.0981 28.6029 34.405 32.4571C35.1078 32.8886 35.3307 33.8057 34.8993 34.5086ZM37.8278 27.9929C37.2878 28.8714 36.1393 29.1486 35.2621 28.6086C28.8307 24.6546 19.027 23.5097 11.4198 25.8189C10.4333 26.1169 9.39126 25.5609 9.09184 24.576C8.79469 23.5894 9.35098 22.5494 10.3358 22.2494C19.0253 19.6129 29.8278 20.89 37.2135 25.4286C38.0907 25.9686 38.3678 27.1169 37.8278 27.9929ZM38.0793 21.2089C30.3678 16.6286 17.645 16.2074 10.2824 18.442C9.10012 18.8006 7.84984 18.1331 7.49155 16.9509C7.13326 15.768 7.80012 14.5186 8.98326 14.1591C17.435 11.5934 31.485 12.0891 40.3633 17.3597C41.429 17.9909 41.7775 19.3643 41.1461 20.4263C40.5175 21.4897 39.1404 21.8403 38.0804 21.2089H38.0793Z" fill="white"/>
</g>
<defs>
<clipPath id="clip0_5_544">
<rect width="48" height="48" fill="white"/>
</clipPath>
</defs>
</svg>
