<svg width="48" height="48" viewBox="0 0 48 48" fill="none" xmlns="http://www.w3.org/2000/svg">
<g clip-path="url(#clip0_5_546)">
<path fill-rule="evenodd" clip-rule="evenodd" d="M48.0001 24C48.0001 37.2548 37.255 48 24.0001 48C10.7453 48 0.00012207 37.2548 0.00012207 24C0.00012207 10.7452 10.7453 0 24.0001 0C37.255 0 48.0001 10.7452 48.0001 24ZM24.8602 17.7179C22.5258 18.6888 17.8604 20.6984 10.8639 23.7466C9.72779 24.1984 9.13264 24.6404 9.07846 25.0726C8.98689 25.803 9.90154 26.0906 11.1471 26.4822C11.3165 26.5355 11.492 26.5907 11.672 26.6492C12.8974 27.0475 14.5458 27.5135 15.4027 27.5321C16.18 27.5489 17.0476 27.2284 18.0054 26.5707C24.5424 22.158 27.9169 19.9276 28.1287 19.8795C28.2782 19.8456 28.4853 19.803 28.6257 19.9277C28.766 20.0524 28.7522 20.2886 28.7373 20.352C28.6467 20.7383 25.0564 24.0762 23.1984 25.8036C22.6191 26.3421 22.2083 26.724 22.1243 26.8113C21.9361 27.0067 21.7444 27.1915 21.5601 27.3692C20.4217 28.4667 19.5679 29.2896 21.6073 30.6336C22.5874 31.2794 23.3716 31.8135 24.154 32.3463C25.0085 32.9282 25.8607 33.5085 26.9633 34.2313C27.2443 34.4155 27.5126 34.6068 27.7739 34.7931C28.7683 35.5019 29.6616 36.1388 30.7653 36.0373C31.4066 35.9782 32.069 35.3752 32.4055 33.5767C33.2006 29.3263 34.7634 20.1169 35.1246 16.3219C35.1562 15.9895 35.1164 15.5639 35.0844 15.3771C35.0525 15.1904 34.9857 14.9242 34.7429 14.7272C34.4553 14.4939 34.0114 14.4447 33.8129 14.4482C32.9102 14.4641 31.5252 14.9456 24.8602 17.7179Z" fill="white"/>
</g>
<defs>
<clipPath id="clip0_5_546">
<rect width="48" height="48" fill="white"/>
</clipPath>
</defs>
</svg>
