<svg width="79" height="67" viewBox="0 0 79 67" fill="none" xmlns="http://www.w3.org/2000/svg">
<path opacity="0.5" d="M27.25 30.2812H51.5M27.25 42.4062H51.5M75.75 57.5625V18.1562C75.75 14.8067 73.0461 12.0938 69.6966 12.0938H42.4062C36.3438 12.0938 36.3438 3 27.25 3H9.0625C7.45463 3 5.9126 3.63873 4.77566 4.77566C3.63873 5.9126 3 7.45463 3 9.0625V57.5625C3 59.1704 3.63873 60.7124 4.77566 61.8493C5.9126 62.9863 7.45463 63.625 9.0625 63.625H69.6875C71.2954 63.625 72.8374 62.9863 73.9743 61.8493C75.1113 60.7124 75.75 59.1704 75.75 57.5625Z" stroke="white" stroke-width="6" stroke-linecap="round"/>
</svg>
