<svg width="48" height="48" viewBox="0 0 48 48" fill="none" xmlns="http://www.w3.org/2000/svg">
<g clip-path="url(#clip0_5_380)">
<path d="M24 0C30.3652 0 36.4697 2.52856 40.9706 7.02944C45.4714 11.5303 48 17.6348 48 24C48 30.3652 45.4714 36.4697 40.9706 40.9706C36.4697 45.4714 30.3652 48 24 48C17.6348 48 11.5303 45.4714 7.02944 40.9706C2.52856 36.4697 0 30.3652 0 24C0 17.6348 2.52856 11.5303 7.02944 7.02944C11.5303 2.52856 17.6348 0 24 0ZM4.5 24C4.5 29.1717 6.55446 34.1316 10.2114 37.7886C13.8684 41.4455 18.8283 43.5 24 43.5C29.1717 43.5 34.1316 41.4455 37.7886 37.7886C41.4455 34.1316 43.5 29.1717 43.5 24C43.5 18.8283 41.4455 13.8684 37.7886 10.2114C34.1316 6.55446 29.1717 4.5 24 4.5C18.8283 4.5 13.8684 6.55446 10.2114 10.2114C6.55446 13.8684 4.5 18.8283 4.5 24ZM19.137 15.681L31.929 23.358C32.0395 23.4248 32.131 23.5189 32.1945 23.6314C32.2579 23.7439 32.2913 23.8709 32.2913 24C32.2913 24.1291 32.2579 24.2561 32.1945 24.3686C32.131 24.4811 32.0395 24.5752 31.929 24.642L19.137 32.319C19.0232 32.3875 18.8933 32.4246 18.7606 32.4265C18.6278 32.4284 18.4969 32.3949 18.3812 32.3296C18.2656 32.2644 18.1694 32.1695 18.1024 32.0549C18.0354 31.9402 18.0001 31.8098 18 31.677V16.326C17.9995 16.1929 18.0345 16.0622 18.1013 15.9471C18.168 15.832 18.2642 15.7367 18.3799 15.6711C18.4957 15.6054 18.6268 15.5718 18.7598 15.5735C18.8928 15.5752 19.023 15.6123 19.137 15.681Z" fill="#D3D9E5"/>
</g>
<defs>
<clipPath id="clip0_5_380">
<rect width="48" height="48" fill="white"/>
</clipPath>
</defs>
</svg>
