<svg width="40" height="40" viewBox="0 0 40 40" fill="none" xmlns="http://www.w3.org/2000/svg">
<g clip-path="url(#clip0_5_384)">
<path d="M20 0C25.3043 0 30.3914 2.10714 34.1421 5.85786C37.8929 9.60859 40 14.6957 40 20C40 25.3043 37.8929 30.3914 34.1421 34.1421C30.3914 37.8929 25.3043 40 20 40C14.6957 40 9.60859 37.8929 5.85786 34.1421C2.10714 30.3914 0 25.3043 0 20C0 14.6957 2.10714 9.60859 5.85786 5.85786C9.60859 2.10714 14.6957 0 20 0ZM20 36.25C24.3098 36.25 28.443 34.538 31.4905 31.4905C34.538 28.443 36.25 24.3098 36.25 20C36.25 15.6902 34.538 11.557 31.4905 8.50951C28.443 5.46205 24.3098 3.75 20 3.75C15.6902 3.75 11.557 5.46205 8.50951 8.50951C5.46205 11.557 3.75 15.6902 3.75 20C3.75 24.3098 5.46205 28.443 8.50951 31.4905C11.557 34.538 15.6902 36.25 20 36.25Z" fill="#D3D9E5"/>
<path d="M22.5 20L12.5 12.5V27.5L22.5 20ZM27.5 12.5H22.5V27.5H27.5V12.5Z" fill="#D3D9E5"/>
</g>
<defs>
<clipPath id="clip0_5_384">
<rect width="40" height="40" fill="white"/>
</clipPath>
</defs>
</svg>
