<svg width="48" height="48" viewBox="0 0 48 48" fill="none" xmlns="http://www.w3.org/2000/svg">
<g filter="url(#filter0_d_18_37)">
<path d="M25.5091 32.6594C25.5091 33.2066 24.8864 33.5207 24.4463 33.1956L17.4485 28.0252C17.4255 28.0082 17.3978 27.9991 17.3692 27.9991H12.6667C12.2985 27.9991 12 27.7006 12 27.3324V20.6658C12 20.2976 12.2985 19.9991 12.6667 19.9991H17.3711C17.3997 19.9991 17.4274 19.9899 17.4504 19.973L24.4463 14.8036C24.8863 14.4784 25.5091 14.7926 25.5091 15.3397L25.5091 32.6594Z" fill="#F5F5F5"/>
<path d="M35.5091 17.3333C35.8773 17.3333 36.1758 17.6318 36.1758 18V30C36.1758 30.3682 35.8773 30.6666 35.5091 30.6666H34.1758C33.8076 30.6666 33.5091 30.3682 33.5091 30V18C33.5091 17.6318 33.8076 17.3333 34.1758 17.3333L35.5091 17.3333Z" fill="#F5F5F5"/>
<path d="M30.1758 20C30.544 20 30.8424 20.2984 30.8424 20.6666V27.3333C30.8424 27.7015 30.544 28 30.1758 28H28.8424C28.4743 28 28.1758 27.7015 28.1758 27.3333V20.6666C28.1758 20.2984 28.4743 20 28.8424 20H30.1758Z" fill="#F5F5F5"/>
</g>
<defs>
<filter id="filter0_d_18_37" x="12" y="14.6719" width="26.1758" height="20.6554" filterUnits="userSpaceOnUse" color-interpolation-filters="sRGB">
<feFlood flood-opacity="0" result="BackgroundImageFix"/>
<feColorMatrix in="SourceAlpha" type="matrix" values="0 0 0 0 0 0 0 0 0 0 0 0 0 0 0 0 0 0 127 0" result="hardAlpha"/>
<feOffset dx="1" dy="1"/>
<feGaussianBlur stdDeviation="0.5"/>
<feComposite in2="hardAlpha" operator="out"/>
<feColorMatrix type="matrix" values="0 0 0 0 0.0392157 0 0 0 0 0.0392157 0 0 0 0 0.0392157 0 0 0 0.04 0"/>
<feBlend mode="normal" in2="BackgroundImageFix" result="effect1_dropShadow_18_37"/>
<feBlend mode="normal" in="SourceGraphic" in2="effect1_dropShadow_18_37" result="shape"/>
</filter>
</defs>
</svg>
